<svg width="1328" height="1777" viewBox="0 0 1328 1777" fill="none" xmlns="http://www.w3.org/2000/svg">
<path d="M668.39 0V3.51186L666.634 5.26779V10.5356L664.878 12.2915V17.5593L663.122 19.3152V22.8271L661.366 24.583V28.0949L659.61 29.8508V33.3626L657.854 35.1186V40.3864L656.098 42.1423V45.6542L654.342 47.4101V49.166L652.586 50.9219V54.4338L650.83 56.1897V59.7016L649.074 61.4575V64.9694L647.318 66.7253V70.2372L645.562 71.9931V73.749L643.806 75.5049V79.0168L642.05 80.7727V84.2846L640.294 86.0405V87.7964L638.538 89.5524V93.0642L636.782 94.8202V96.5761L635.026 98.332V101.844L633.27 103.6V105.356L631.514 107.112V110.624L629.758 112.379V114.135L628.002 115.891V119.403L626.246 121.159V122.915L624.49 124.671V128.183L622.734 129.939V131.695L620.978 133.451V135.207L619.222 136.962V140.474L617.465 142.23V143.986L615.709 145.742V147.498L613.953 149.254V152.766L612.197 154.522V156.278L610.441 158.034V159.79L608.685 161.545V163.301L606.929 165.057V168.569L605.173 170.325V172.081L603.417 173.837V175.593L601.661 177.349V179.105L599.905 180.861V182.617L598.149 184.373V186.128L596.393 187.884V191.396L594.637 193.152V194.908L592.881 196.664V198.42L591.125 200.176V201.932L589.369 203.688V205.444L587.613 207.2V208.956L585.857 210.711V212.467L584.101 214.223V215.979L582.345 217.735V219.491L580.589 221.247V223.003L578.833 224.759V226.515L577.077 228.271V230.027L575.321 231.783V233.539L573.565 235.294V237.05L571.809 238.806V240.562L570.053 242.318V244.074L568.297 245.83V247.586L566.541 249.342V251.098L564.785 252.854V254.61L563.029 256.366V258.122L561.273 259.877V261.633L559.517 263.389V265.145L557.761 266.901V268.657L556.005 270.413V272.169L554.249 273.925V275.681L552.493 277.437V279.193L550.737 280.949V282.705L548.981 284.46V286.216L547.225 287.972V289.728L543.713 293.24V294.996L541.957 296.752V298.508L540.201 300.264V302.02L538.445 303.776V305.532L536.689 307.288V309.043L533.177 312.555V314.311L531.421 316.067V317.823L529.665 319.579V321.335L527.909 323.091V324.847L524.396 328.359V330.115L522.64 331.871V333.626L520.884 335.382V337.138L519.128 338.894V340.65L515.616 344.162V345.918L513.86 347.674V349.43L512.104 351.186V352.942L508.592 356.454V358.209L506.836 359.965V361.721L503.324 365.233V366.989L501.568 368.745V370.501L498.056 374.013V375.769L496.3 377.525V379.281L492.788 382.792V384.548L491.032 386.304V388.06L487.52 391.572V393.328L485.764 395.084V396.84L482.252 400.352V402.108L478.74 405.62V407.375L475.228 410.887V412.643L473.472 414.399V416.155L469.96 419.667V421.423L466.448 424.935V426.691L462.936 430.203V431.959L459.424 435.47V437.226L455.912 440.738V442.494L452.4 446.006V447.762L448.888 451.274V453.03L445.376 456.542V458.297L441.864 461.809V463.565L438.352 467.077V468.833L434.839 472.345V474.101L431.327 477.613V479.369L427.815 482.88V484.636L424.303 488.148V489.904L420.791 493.416V495.172L417.279 498.684V500.44L413.767 503.952V505.708L412.011 507.463V509.219L408.499 512.731V514.487L404.987 517.999V519.755L401.475 523.267V525.023L397.963 528.535V530.291L394.451 533.802V535.558L390.939 539.07V540.826L387.427 544.338V546.094L385.671 547.85V549.606L382.159 553.118V554.874L378.647 558.385V560.141L375.135 563.653V565.409L371.623 568.921V570.677L368.111 574.189V575.945L364.599 579.457V581.212L361.087 584.724V586.48L357.575 589.992V591.748L354.063 595.26V597.016L352.307 598.772V600.528L348.795 604.04V605.795L345.283 609.307V611.063L341.77 614.575V616.331L338.258 619.843V621.599L334.746 625.111V626.867L331.234 630.378V632.134L327.722 635.646V637.402L324.21 640.914V642.67L320.698 646.182V647.938L318.942 649.694V651.45L315.43 654.961V656.717L311.918 660.229V661.985L308.406 665.497V667.253L304.894 670.765V672.521L301.382 676.033V677.789L297.87 681.3V683.056L294.358 686.568V688.324L290.846 691.836V693.592L287.334 697.104V698.86L283.822 702.372V704.127L280.31 707.639V709.395L276.798 712.907V714.663L273.286 718.175V719.931L269.774 723.443V725.199L264.506 730.466V732.222L260.994 735.734V737.49L257.482 741.002V742.758L255.726 744.514V746.27L252.213 749.782V751.538L250.457 753.293V755.049L248.701 756.805V758.561L245.189 762.073V763.829L243.433 765.585V767.341L241.677 769.097V770.853L239.921 772.609V774.365L238.165 776.121V777.876L234.653 781.388V783.144L232.897 784.9V786.656L231.141 788.412V790.168L229.385 791.924V793.68L227.629 795.436V797.192L225.873 798.948V800.704L224.117 802.459V804.215L222.361 805.971V807.727L220.605 809.483V811.239L218.849 812.995V814.751L217.093 816.507V818.263L215.337 820.019V821.775L213.581 823.531V825.287L211.825 827.042V828.798L210.069 830.554V832.31L208.313 834.066V835.822L206.557 837.578V839.334L204.801 841.09V842.846L203.045 844.602V846.358L201.289 848.114V849.87L199.533 851.626V855.137L197.777 856.893V858.649L196.021 860.405V862.161L194.265 863.917V865.673L192.509 867.429V870.941L190.753 872.697V874.453L188.997 876.209V877.964L187.241 879.72V883.232L185.485 884.988V886.744L183.729 888.5V890.256L181.973 892.012V895.524L180.217 897.28V899.036L178.461 900.792V904.303L176.705 906.059V909.571L174.949 911.327V913.083L173.193 914.839V918.351L171.437 920.107V921.863L169.681 923.619V927.13L167.925 928.886V932.398L166.169 934.154V937.666L164.413 939.422V942.934L162.657 944.69V946.446L160.9 948.202V951.713L159.144 953.469V956.981L157.388 958.737V962.249L155.632 964.005V967.517L153.876 969.273V974.541L152.12 976.296V979.808L150.364 981.564V985.076L148.608 986.832V992.1L146.852 993.856V997.368L145.096 999.124V1004.39L143.34 1006.15V1011.42L141.584 1013.17V1018.44L139.828 1020.19V1025.46L138.072 1027.22V1032.49L136.316 1034.24V1039.51L134.56 1041.27V1048.29L132.804 1050.05V1055.31L131.048 1057.07V1064.09L129.292 1065.85V1074.63L127.536 1076.38V1083.41L125.78 1085.16V1095.7L124.024 1097.46V1107.99L122.268 1109.75V1120.28L120.512 1122.04V1137.84L118.756 1139.6V1160.67L117 1162.42V1243.2L118.756 1244.95V1264.27L120.512 1266.02V1280.07L122.268 1281.83V1294.12L124.024 1295.88V1304.66L125.78 1306.41V1315.19L127.536 1316.95V1323.97L129.292 1325.73V1332.75L131.048 1334.51V1339.77L132.804 1341.53V1348.55L134.56 1350.31V1355.58L136.316 1357.33V1360.84L138.072 1362.6V1367.87L139.828 1369.62V1374.89L141.584 1376.65V1380.16L143.34 1381.92V1385.43L145.096 1387.18V1390.7L146.852 1392.45V1395.96L148.608 1397.72V1401.23L150.364 1402.99V1406.5L152.12 1408.25V1411.77L153.876 1413.52V1415.28L155.632 1417.03V1420.55L157.388 1422.3V1424.06L159.144 1425.81V1429.33L160.9 1431.08V1432.84L162.657 1434.59V1438.11L164.413 1439.86V1441.62L166.169 1443.37V1445.13L167.925 1446.89V1448.64L169.681 1450.4V1452.15L171.437 1453.91V1457.42L173.193 1459.18V1460.93L174.949 1462.69V1464.44L176.705 1466.2V1467.96L178.461 1469.71V1471.47L180.217 1473.22V1474.98L183.729 1478.49V1480.25L185.485 1482V1483.76L187.241 1485.52V1487.27L188.997 1489.03V1490.78L190.753 1492.54V1494.3L194.265 1497.81V1499.56L196.021 1501.32V1503.08L199.533 1506.59V1508.34L201.289 1510.1V1511.85L204.801 1515.37V1517.12L208.313 1520.63V1522.39L211.825 1525.9V1527.66L215.337 1531.17V1532.93L220.605 1538.19V1539.95L224.117 1543.46V1545.22L229.385 1550.49V1552.24L234.653 1557.51V1559.26L241.677 1566.29V1568.04L252.213 1578.58V1580.34L268.018 1596.14V1597.9L289.09 1618.97H290.846L306.65 1634.77H308.406L317.186 1643.55H318.942L325.966 1650.57H327.722L334.746 1657.6H336.502L341.77 1662.86H343.526L347.039 1666.38H348.795L354.063 1671.64H355.819L359.331 1675.16H361.087L364.599 1678.67H366.355L369.867 1682.18H371.623L373.379 1683.94H375.135L378.647 1687.45H380.403L382.159 1689.2H383.915L387.427 1692.72H389.183L392.695 1696.23H394.451L396.207 1697.98H397.963L399.719 1699.74H401.475L403.231 1701.5H404.987L408.499 1705.01H410.255L412.011 1706.76H413.767L415.523 1708.52H417.279L419.035 1710.27H420.791L422.547 1712.03H424.303L426.059 1713.79H427.815L429.571 1715.54H431.327L433.083 1717.3H436.596L438.352 1719.05H440.108L441.864 1720.81H443.62L445.376 1722.57H447.132L448.888 1724.32H450.644L452.4 1726.08H455.912L457.668 1727.83H459.424L461.18 1729.59H464.692L466.448 1731.35H468.204L469.96 1733.1H473.472L475.228 1734.86H476.984L478.74 1736.61H482.252L484.008 1738.37H487.52L489.276 1740.13H492.788L494.544 1741.88H498.056L499.812 1743.64H503.324L505.08 1745.39H508.592L510.348 1747.15H513.86L515.616 1748.91H520.884L522.64 1750.66H527.909L529.665 1752.42H533.177L534.933 1754.17H540.201L541.957 1755.93H548.981L550.737 1757.68H556.005L557.761 1759.44H564.785L566.541 1761.2H571.809L573.565 1762.95H578.833L580.589 1764.71H587.613L589.369 1766.46H594.637L596.393 1768.22H601.661L603.417 1769.98H610.441L612.197 1771.73H620.978L622.734 1773.49H631.514L633.27 1775.24H647.318L649.074 1777H671.902L673.658 1775.24L675.414 1777L677.17 1775.24V1773.49L678.926 1771.73H692.974L694.73 1769.98H708.778L710.535 1768.22H712.291L714.047 1769.98H715.803L717.559 1768.22H726.339L728.095 1766.46H740.387L742.143 1764.71H752.679L754.435 1762.95H763.215L764.971 1761.2H771.995L773.751 1759.44H780.775L782.531 1757.68H787.799L789.555 1755.93H794.823L796.579 1754.17H801.848L803.604 1752.42H808.872L810.628 1750.66H814.14L815.896 1748.91H821.164L822.92 1747.15H826.432L828.188 1745.39H831.7L833.456 1743.64H836.968L838.724 1741.88H842.236L843.992 1740.13H847.504L849.26 1738.37H851.016L852.772 1736.61H856.284L858.04 1734.86H859.796L861.552 1733.1H865.064L866.82 1731.35H868.576L870.332 1729.59H873.844L875.6 1727.83H877.356L879.112 1726.08H880.868L882.624 1724.32H884.38L886.136 1722.57H887.892L889.648 1720.81H891.404L893.161 1719.05H896.673L898.429 1717.3H900.185L903.697 1713.79H905.453L907.209 1712.03H908.965L910.721 1710.27H912.477L914.233 1708.52H915.989L917.745 1706.76H919.501L921.257 1705.01H923.013L926.525 1701.5H928.281L930.037 1699.74H931.793L935.305 1696.23H937.061L938.817 1694.47H940.573L944.085 1690.96H945.841L949.353 1687.45H951.109L954.621 1683.94H956.377L959.889 1680.42H961.645L965.157 1676.91H966.913L972.181 1671.64H973.937L979.205 1666.38H980.961L986.23 1661.11H987.986L995.01 1654.08H996.766L1007.3 1643.55H1009.06L1058.23 1594.38V1592.63L1068.76 1582.09V1580.34L1075.79 1573.31V1571.56L1082.81 1564.53V1562.78L1088.08 1557.51V1555.75L1093.35 1550.49V1548.73L1096.86 1545.22V1543.46L1100.37 1539.95V1538.19L1105.64 1532.93V1531.17L1109.15 1527.66V1525.9L1112.66 1522.39V1520.63L1114.42 1518.88V1517.12L1117.93 1513.61V1511.85L1121.44 1508.34V1506.59L1123.2 1504.83V1503.08L1126.71 1499.56V1497.81L1128.47 1496.05V1494.3L1130.22 1492.54V1490.78L1133.74 1487.27V1485.52L1135.49 1483.76V1482L1137.25 1480.25V1478.49L1139 1476.74V1474.98L1140.76 1473.22V1471.47L1144.27 1467.96V1466.2L1146.03 1464.44V1462.69L1147.78 1460.93V1459.18L1149.54 1457.42V1455.67L1151.3 1453.91V1452.15L1153.05 1450.4V1446.89L1154.81 1445.13V1443.37L1156.56 1441.62V1439.86L1158.32 1438.11V1436.35L1160.08 1434.59V1432.84L1161.83 1431.08V1429.33L1163.59 1427.57V1424.06L1165.34 1422.3V1420.55L1167.1 1418.79V1417.03L1168.86 1415.28V1411.77L1170.61 1410.01V1408.25L1172.37 1406.5V1404.74L1174.12 1402.99V1399.48L1175.88 1397.72V1395.96L1177.64 1394.21V1390.7L1179.39 1388.94V1385.43L1181.15 1383.67V1378.4L1182.9 1376.65V1373.14L1184.66 1371.38V1366.11L1186.42 1364.36V1359.09L1188.17 1357.33V1352.07L1189.93 1350.31V1345.04L1191.68 1343.29V1338.02L1193.44 1336.26V1329.24L1195.2 1327.48V1320.46L1196.95 1318.7V1311.68L1198.71 1309.92V1302.9L1200.46 1301.14V1292.36L1202.22 1290.61V1281.83L1203.98 1280.07V1269.54L1205.73 1267.78V1255.49L1207.49 1253.73V1237.93L1209.24 1236.17V1209.83L1211 1208.08V1150.13L1209.24 1148.38V1123.79L1207.49 1122.04V1106.24L1205.73 1104.48V1092.19L1203.98 1090.43V1079.9L1202.22 1078.14V1069.36L1200.46 1067.6V1058.83L1198.71 1057.07V1050.05L1196.95 1048.29V1041.27L1195.2 1039.51V1032.49L1193.44 1030.73V1025.46L1191.68 1023.71V1018.44L1189.93 1016.68V1011.42L1188.17 1009.66V1004.39L1186.42 1002.64V997.368L1184.66 995.612V990.344L1182.9 988.588V985.076L1181.15 983.32V979.808L1179.39 978.052V972.785L1177.64 971.029V967.517L1175.88 965.761V962.249L1174.12 960.493V956.981L1172.37 955.225V951.713L1170.61 949.958V946.446L1168.86 944.69V941.178L1167.1 939.422V935.91L1165.34 934.154V930.642L1163.59 928.886V927.13L1161.83 925.375V921.863L1160.08 920.107V916.595L1158.32 914.839V913.083L1156.56 911.327V907.815L1154.81 906.059V904.303L1153.05 902.547V899.036L1151.3 897.28V895.524L1149.54 893.768V890.256L1147.78 888.5V886.744L1146.03 884.988V883.232L1144.27 881.476V877.964L1142.52 876.209V874.453L1140.76 872.697V870.941L1139 869.185V867.429L1137.25 865.673V862.161L1135.49 860.405V858.649L1133.74 856.893V855.137L1131.98 853.381V851.626L1130.22 849.87V848.114L1128.47 846.358V844.602L1126.71 842.846V839.334L1124.96 837.578V835.822L1123.2 834.066V832.31L1121.44 830.554V828.798L1119.69 827.042V825.287L1117.93 823.531V821.775L1116.17 820.019V818.263L1114.42 816.507V814.751L1112.66 812.995V811.239L1109.15 807.727V805.971L1107.39 804.215V802.459L1105.64 800.704V798.948L1103.88 797.192V795.436L1102.13 793.68V791.924L1100.37 790.168V788.412L1098.61 786.656V784.9L1095.1 781.388V779.632L1093.35 777.876V776.121L1091.59 774.365V772.609L1089.83 770.853V769.097L1086.32 765.585V763.829L1084.57 762.073V760.317L1081.05 756.805V755.049L1079.3 753.293V751.538L1075.79 748.026V746.27L1072.27 742.758V741.002L1068.76 737.49V735.734L1065.25 732.222V730.466L1061.74 726.955V725.199L1058.23 721.687V719.931L1054.71 716.419V714.663L1051.2 711.151V709.395L1047.69 705.883V704.127L1044.18 700.616V698.86L1040.67 695.348V693.592L1035.4 688.324V686.568L1031.89 683.056V681.3L1028.37 677.789V676.033L1024.86 672.521V670.765L1021.35 667.253V665.497L1016.08 660.229V658.473L1012.57 654.961V653.206L1009.06 649.694V647.938L1005.55 644.426V642.67L1000.28 637.402V635.646L996.766 632.134V630.378L993.254 626.867V625.111L989.742 621.599V619.843L986.23 616.331V614.575L980.961 609.307V607.551L977.449 604.04V602.284L973.937 598.772V597.016L970.425 593.504V591.748L966.913 588.236V586.48L963.401 582.968V581.212L959.889 577.701V575.945L956.377 572.433V570.677L952.865 567.165V565.409L947.597 560.141V558.385L944.085 554.874V553.118L940.573 549.606V547.85L937.061 544.338V542.582L935.305 540.826V539.07L931.793 535.558V533.802L928.281 530.291V528.535L924.769 525.023V523.267L921.257 519.755V517.999L917.745 514.487V512.731L914.233 509.219V507.463L910.721 503.952V502.196L907.209 498.684V496.928L903.697 493.416V491.66L900.185 488.148V486.392L898.429 484.636V482.88L894.917 479.369V477.613L891.404 474.101V472.345L887.892 468.833V467.077L884.38 463.565V461.809L882.624 460.053V458.297L879.112 454.786V453.03L875.6 449.518V447.762L873.844 446.006V444.25L870.332 440.738V438.982L866.82 435.47V433.714L865.064 431.959V430.203L861.552 426.691V424.935L859.796 423.179V421.423L856.284 417.911V416.155L852.772 412.643V410.887L851.016 409.131V407.375L847.504 403.864V402.108L845.748 400.352V398.596L842.236 395.084V393.328L840.48 391.572V389.816L836.968 386.304V384.548L835.212 382.792V381.037L831.7 377.525V375.769L829.944 374.013V372.257L826.432 368.745V366.989L824.676 365.233V363.477L822.92 361.721V359.965L819.408 356.454V354.698L817.652 352.942V351.186L815.896 349.43V347.674L812.384 344.162V342.406L810.628 340.65V338.894L808.872 337.138V335.382L805.36 331.871V330.115L803.604 328.359V326.603L801.848 324.847V323.091L800.091 321.335V319.579L796.579 316.067V314.311L794.823 312.555V310.799L793.067 309.043V307.288L791.311 305.532V303.776L789.555 302.02V300.264L786.043 296.752V294.996L784.287 293.24V291.484L782.531 289.728V287.972L780.775 286.216V284.46L779.019 282.705V280.949L777.263 279.193V277.437L775.507 275.681V273.925L771.995 270.413V268.657L770.239 266.901V265.145L768.483 263.389V261.633L766.727 259.877V258.122L764.971 256.366V254.61L763.215 252.854V251.098L761.459 249.342V247.586L759.703 245.83V244.074L757.947 242.318V240.562L756.191 238.806V237.05L754.435 235.294V233.539L752.679 231.783V230.027L750.923 228.271V226.515L749.167 224.759V223.003L747.411 221.247V219.491L745.655 217.735V214.223L743.899 212.467V210.711L742.143 208.956V207.2L740.387 205.444V203.688L738.631 201.932V200.176L736.875 198.42V196.664L735.119 194.908V193.152L733.363 191.396V187.884L731.607 186.128V184.373L729.851 182.617V180.861L728.095 179.105V177.349L726.339 175.593V172.081L724.583 170.325V168.569L722.827 166.813V165.057L721.071 163.301V159.79L719.315 158.034V156.278L717.559 154.522V152.766L715.803 151.01V147.498L714.047 145.742V143.986L712.291 142.23V138.718L710.535 136.962V135.207L708.778 133.451V129.939L707.022 128.183V126.427L705.266 124.671V121.159L703.51 119.403V115.891L701.754 114.135V112.379L699.998 110.624V107.112L698.242 105.356V101.844L696.486 100.088V96.5761L694.73 94.8202V91.3083L692.974 89.5524V86.0405L691.218 84.2846V82.5287L689.462 80.7727V77.2609L687.706 75.5049V70.2372L685.95 68.4812V64.9694L684.194 63.2134V59.7016L682.438 57.9457V54.4338L680.682 52.6779V47.4101L678.926 45.6542V40.3864L677.17 38.6304V35.1186L675.414 33.3626V28.0949L673.658 26.3389V21.0711L671.902 19.3152V12.2915L670.146 10.5356V5.26779L668.39 3.51186" fill="#0C0E98"/>
<path d="M233.328 1177.72C241.38 1179.44 247.848 1183.46 252.732 1189.8C257.616 1196 260.058 1203.13 260.058 1211.18C260.058 1222.8 255.966 1232.04 247.782 1238.9C239.73 1245.63 228.444 1249 213.924 1249H149.178V1110H211.746C225.87 1110 236.892 1113.24 244.812 1119.71C252.864 1126.17 256.89 1134.95 256.89 1146.04C256.89 1154.22 254.712 1161.02 250.356 1166.43C246.132 1171.85 240.456 1175.61 233.328 1177.72ZM183.036 1166.24H205.212C210.756 1166.24 214.98 1165.05 217.884 1162.67C220.92 1160.16 222.438 1156.53 222.438 1151.78C222.438 1147.03 220.92 1143.4 217.884 1140.89C214.98 1138.38 210.756 1137.13 205.212 1137.13H183.036V1166.24ZM207.984 1221.68C213.66 1221.68 218.016 1220.42 221.052 1217.91C224.22 1215.27 225.804 1211.51 225.804 1206.63C225.804 1201.74 224.154 1197.92 220.854 1195.14C217.686 1192.37 213.264 1190.99 207.588 1190.99H183.036V1221.68H207.984ZM388.794 1138.52V1249H354.936V1233.95C351.504 1238.84 346.818 1242.8 340.878 1245.83C335.07 1248.74 328.602 1250.19 321.474 1250.19C313.026 1250.19 305.568 1248.34 299.1 1244.64C292.632 1240.82 287.616 1235.34 284.052 1228.21C280.488 1221.08 278.706 1212.7 278.706 1203.06V1138.52H312.366V1198.51C312.366 1205.9 314.28 1211.64 318.108 1215.74C321.936 1219.83 327.084 1221.87 333.552 1221.87C340.152 1221.87 345.366 1219.83 349.194 1215.74C353.022 1211.64 354.936 1205.9 354.936 1198.51V1138.52H388.794ZM517.262 1191.98C517.262 1195.14 517.064 1198.44 516.668 1201.88H440.042C440.57 1208.74 442.748 1214.02 446.576 1217.72C450.536 1221.28 455.354 1223.06 461.03 1223.06C469.478 1223.06 475.352 1219.5 478.652 1212.37H514.688C512.84 1219.63 509.474 1226.16 504.59 1231.97C499.838 1237.78 493.832 1242.33 486.572 1245.63C479.312 1248.93 471.194 1250.58 462.218 1250.58C451.394 1250.58 441.758 1248.27 433.31 1243.65C424.862 1239.03 418.262 1232.43 413.51 1223.85C408.758 1215.27 406.382 1205.24 406.382 1193.76C406.382 1182.27 408.692 1172.24 413.312 1163.66C418.064 1155.08 424.664 1148.48 433.112 1143.86C441.56 1139.24 451.262 1136.93 462.218 1136.93C472.91 1136.93 482.414 1139.18 490.73 1143.66C499.046 1148.15 505.514 1154.55 510.134 1162.87C514.886 1171.19 517.262 1180.89 517.262 1191.98ZM482.612 1183.07C482.612 1177.26 480.632 1172.64 476.672 1169.21C472.712 1165.77 467.762 1164.06 461.822 1164.06C456.146 1164.06 451.328 1165.71 447.368 1169.01C443.54 1172.31 441.164 1176.99 440.24 1183.07H482.612ZM602.444 1137.33C615.38 1137.33 625.676 1141.55 633.332 1150C641.12 1158.32 645.014 1169.8 645.014 1184.45V1249H611.354V1189.01C611.354 1181.61 609.44 1175.87 605.612 1171.78C601.784 1167.69 596.636 1165.64 590.168 1165.64C583.7 1165.64 578.552 1167.69 574.724 1171.78C570.896 1175.87 568.982 1181.61 568.982 1189.01V1249H535.124V1138.52H568.982V1153.17C572.414 1148.28 577.034 1144.46 582.842 1141.68C588.65 1138.78 595.184 1137.33 602.444 1137.33ZM703.769 1193.56C703.769 1182.21 705.881 1172.24 710.105 1163.66C714.461 1155.08 720.335 1148.48 727.727 1143.86C735.119 1139.24 743.369 1136.93 752.477 1136.93C760.265 1136.93 767.063 1138.52 772.871 1141.68C778.811 1144.85 783.365 1149.01 786.533 1154.16V1138.52H820.391V1249H786.533V1233.36C783.233 1238.51 778.613 1242.66 772.673 1245.83C766.865 1249 760.067 1250.58 752.279 1250.58C743.303 1250.58 735.119 1248.27 727.727 1243.65C720.335 1238.9 714.461 1232.24 710.105 1223.66C705.881 1214.94 703.769 1204.91 703.769 1193.56ZM786.533 1193.76C786.533 1185.31 784.157 1178.64 779.405 1173.76C774.785 1168.88 769.109 1166.43 762.377 1166.43C755.645 1166.43 749.903 1168.88 745.151 1173.76C740.531 1178.51 738.221 1185.11 738.221 1193.56C738.221 1202.01 740.531 1208.74 745.151 1213.76C749.903 1218.64 755.645 1221.08 762.377 1221.08C769.109 1221.08 774.785 1218.64 779.405 1213.76C784.157 1208.87 786.533 1202.21 786.533 1193.76ZM889.831 1250.58C880.195 1250.58 871.615 1248.93 864.091 1245.63C856.567 1242.33 850.627 1237.85 846.271 1232.17C841.915 1226.36 839.473 1219.89 838.945 1212.77H872.407C872.803 1216.59 874.585 1219.7 877.753 1222.07C880.921 1224.45 884.815 1225.64 889.435 1225.64C893.659 1225.64 896.893 1224.84 899.137 1223.26C901.513 1221.54 902.701 1219.37 902.701 1216.73C902.701 1213.56 901.051 1211.25 897.751 1209.8C894.451 1208.21 889.105 1206.5 881.713 1204.65C873.793 1202.8 867.193 1200.89 861.913 1198.91C856.633 1196.79 852.079 1193.56 848.251 1189.2C844.423 1184.72 842.509 1178.71 842.509 1171.19C842.509 1164.85 844.225 1159.11 847.657 1153.96C851.221 1148.68 856.369 1144.52 863.101 1141.49C869.965 1138.45 878.083 1136.93 887.455 1136.93C901.315 1136.93 912.205 1140.36 920.125 1147.23C928.177 1154.09 932.797 1163.2 933.985 1174.55H902.701C902.173 1170.72 900.457 1167.69 897.553 1165.44C894.781 1163.2 891.085 1162.08 886.465 1162.08C882.505 1162.08 879.469 1162.87 877.357 1164.45C875.245 1165.91 874.189 1167.95 874.189 1170.59C874.189 1173.76 875.839 1176.14 879.139 1177.72C882.571 1179.3 887.851 1180.89 894.979 1182.47C903.163 1184.58 909.829 1186.7 914.977 1188.81C920.125 1190.79 924.613 1194.09 928.441 1198.71C932.401 1203.2 934.447 1209.27 934.579 1216.92C934.579 1223.39 932.731 1229.2 929.035 1234.35C925.471 1239.36 920.257 1243.32 913.393 1246.23C906.661 1249.13 898.807 1250.58 889.831 1250.58ZM1059.44 1191.98C1059.44 1195.14 1059.24 1198.44 1058.85 1201.88H982.222C982.75 1208.74 984.928 1214.02 988.756 1217.72C992.716 1221.28 997.534 1223.06 1003.21 1223.06C1011.66 1223.06 1017.53 1219.5 1020.83 1212.37H1056.87C1055.02 1219.63 1051.65 1226.16 1046.77 1231.97C1042.02 1237.78 1036.01 1242.33 1028.75 1245.63C1021.49 1248.93 1013.37 1250.58 1004.4 1250.58C993.574 1250.58 983.938 1248.27 975.49 1243.65C967.042 1239.03 960.442 1232.43 955.69 1223.85C950.938 1215.27 948.562 1205.24 948.562 1193.76C948.562 1182.27 950.872 1172.24 955.492 1163.66C960.244 1155.08 966.844 1148.48 975.292 1143.86C983.74 1139.24 993.442 1136.93 1004.4 1136.93C1015.09 1136.93 1024.59 1139.18 1032.91 1143.66C1041.23 1148.15 1047.69 1154.55 1052.31 1162.87C1057.07 1171.19 1059.44 1180.89 1059.44 1191.98ZM1024.79 1183.07C1024.79 1177.26 1022.81 1172.64 1018.85 1169.21C1014.89 1165.77 1009.94 1164.06 1004 1164.06C998.326 1164.06 993.508 1165.71 989.548 1169.01C985.72 1172.31 983.344 1176.99 982.42 1183.07H1024.79ZM1127.6 1250.58C1116.77 1250.58 1107 1248.27 1098.29 1243.65C1089.71 1239.03 1082.91 1232.43 1077.9 1223.85C1073.01 1215.27 1070.57 1205.24 1070.57 1193.76C1070.57 1182.41 1073.08 1172.44 1078.1 1163.86C1083.11 1155.15 1089.98 1148.48 1098.69 1143.86C1107.4 1139.24 1117.17 1136.93 1127.99 1136.93C1138.82 1136.93 1148.58 1139.24 1157.3 1143.86C1166.01 1148.48 1172.87 1155.15 1177.89 1163.86C1182.9 1172.44 1185.41 1182.41 1185.41 1193.76C1185.41 1205.11 1182.84 1215.14 1177.69 1223.85C1172.67 1232.43 1165.74 1239.03 1156.9 1243.65C1148.19 1248.27 1138.42 1250.58 1127.6 1250.58ZM1127.6 1221.28C1134.06 1221.28 1139.54 1218.9 1144.03 1214.15C1148.65 1209.4 1150.96 1202.6 1150.96 1193.76C1150.96 1184.91 1148.72 1178.12 1144.23 1173.36C1139.87 1168.61 1134.46 1166.24 1127.99 1166.24C1121.39 1166.24 1115.91 1168.61 1111.56 1173.36C1107.2 1177.98 1105.02 1184.78 1105.02 1193.76C1105.02 1202.6 1107.14 1209.4 1111.36 1214.15C1115.72 1218.9 1121.13 1221.28 1127.6 1221.28Z" fill="white"/>
</svg>
